<svg xmlns="http://www.w3.org/2000/svg" viewBox="0 0 323.15 127.56"><title>UU_logo_EN_BLACK</title><g id="f4dc97a0-7999-4605-b7b6-b24784b4824d" data-name="background"><rect width="323.15" height="127.56" style="fill:none"/></g><g id="ad6b83e5-0c0a-4cb9-9e3b-5639ebd4d3e9" data-name="UU logo"><path d="M182.78,58.88h4.92v.74h-.14c-1.52,0-1.74.67-1.74,1.58v4.73c0,4.23-3.08,5-5.34,5-3.42,0-5.59-1.48-5.59-4.39V60.91c0-.95-.26-1.29-1.33-1.29h-.32v-.74h5.95v.74h-.33a1.18,1.18,0,0,0-1.35,1.29v5.66c0,2.32,1.71,3.12,3.44,3.12,2.49,0,3.73-1.41,3.73-3.5V61.58c0-1.35-.38-2-1.56-2h-.34ZM197.2,69c0,.93.34,1.12,1.08,1.12v.61H193.8v-.61c.78-.06,1.08-.59,1.08-2.15V66.29c0-1.52-.42-2.11-1.18-2.11a3.64,3.64,0,0,0-2,.84v3.85c0,.86.36,1.22,1.12,1.22H193v.61h-4.81v-.61h.12c.8,0,1.08-.34,1.08-1.33V65.05c0-.41-.23-.66-.89-.85l-.4-.12v-.45l3.25-1.1h.36v1.69a7.36,7.36,0,0,1,3.51-1.48c1.39,0,2,1,2,3.26Zm6.52,1.73H199v-.61h.21c.77,0,1.06-.34,1.06-1.33V65.11c0-.49-.12-.63-.65-.82l-.62-.22v-.46l3.24-1.08h.35v6.36c0,.78.32,1.2,1.16,1.2Zm-.9-11.19a1.4,1.4,0,0,1-1.5,1.29,1.38,1.38,0,0,1-1.52-1.29,1.47,1.47,0,0,1,1.52-1.3A1.37,1.37,0,0,1,202.82,59.51Zm1.11,3.43h4.82v.61h-.66c-.4,0-.57.36-.25,1.07l1.69,3.78L211,65.05c.44-1,.21-1.36-1.12-1.5v-.61h3.78v.61a1.57,1.57,0,0,0-1.6,1.14l-2.71,6.14h-1.14l-2.83-6.1c-.36-.78-.63-1.08-1.46-1.18Zm17.4,5.55a5.24,5.24,0,0,1-4.07,2.41c-2.07,0-3.47-1.59-3.47-3.89a4,4,0,0,1,4.06-4.27,3.26,3.26,0,0,1,2.4.91c1.12,1.12.58,2.18,1.25,2.52v.56h-5.26c.15,1.57,1.21,2.77,2.33,2.77.71,0,1.39-.4,2.32-1.37ZM218.88,66c0-1.46-.53-2.35-1.35-2.35s-1.48,1-1.35,2.35Zm8.91,4.72h-5.28v-.61h.13c.78,0,1.06-.34,1.06-1.33v-3.1c0-.85-.11-1-.68-1.27l-.51-.21V63.7l3.11-1.17h.4v2.12h0c.7-1.36,1-1.91,1.65-1.91a1.35,1.35,0,0,1,.38,0l1.5.55a6.4,6.4,0,0,1-.91,2,7.1,7.1,0,0,0-1.54-.48c-.38,0-.7.27-1.12.86v3.07c0,.92.29,1.28,1.27,1.28h.5Zm3-2.25h.61a2.13,2.13,0,0,0,2,1.64,1,1,0,0,0,1-.88c0-1.31-3.57-1.76-3.57-4.06,0-1.45,1.2-2.41,3-2.41a5.79,5.79,0,0,1,2.13.4l0,2h-.61c-.34-1-1-1.62-1.78-1.62a.8.8,0,0,0-.88.72c0,1.56,3.74,1.62,3.74,4.22a2.32,2.32,0,0,1-2.47,2.4,8.5,8.5,0,0,1-2-.27c-.11,0-.23.08-.38.25H231Zm11.36,2.25H237.4v-.61h.21c.78,0,1.07-.34,1.07-1.33V65.11c0-.49-.12-.63-.65-.82l-.63-.22v-.46l3.25-1.08H241v6.36c0,.78.33,1.2,1.16,1.2Zm-.89-11.19a1.4,1.4,0,0,1-1.5,1.29,1.38,1.38,0,0,1-1.52-1.29,1.47,1.47,0,0,1,1.52-1.3A1.38,1.38,0,0,1,241.26,59.51Zm5.19,9.08c0,.7.32,1,.87,1s.89-.28,1.44-1l.27.54a3.35,3.35,0,0,1-2.75,1.72c-1.3,0-2.15-.72-2.15-2.35V64h-1V63.5a5.77,5.77,0,0,0,2.78-2.93h.55v2.37h2.49L248.65,64h-2.2ZM252,65.28c-.67-1.37-1-1.73-1.81-1.73v-.61H255v.61c-1,0-1.14.38-.78,1.14L255.81,68,257.26,65c.4-.81.15-1.46-1-1.48v-.61h3.53v.61c-.85.19-1.1.42-1.63,1.5l-4.26,8.67c-.47,1-1.06,1.4-1.72,1.4A1.11,1.11,0,0,1,251,74a1.19,1.19,0,0,1,.28-.8c.88-.87,1.88.31,2.89-1.9l.38-.83ZM115.36,58.94h4.88v.74h-.14c-1.5,0-1.73.65-1.73,1.56v4.68c0,4.19-3,5-5.28,5-3.38,0-5.53-1.46-5.53-4.34V61c0-1-.26-1.28-1.31-1.28h-.32v-.74h5.88v.74h-.31c-.8,0-1.34.35-1.34,1.28v5.6c0,2.29,1.69,3.08,3.4,3.08,2.46,0,3.69-1.39,3.69-3.46V61.61c0-1.33-.38-1.93-1.55-1.93h-.34Zm7.87,9.62c0,.69.31,1,.86,1s.88-.28,1.43-.94l.26.53a3.32,3.32,0,0,1-2.73,1.71c-1.27,0-2.12-.72-2.12-2.33V64h-1v-.49a5.64,5.64,0,0,0,2.75-2.89h.55V63h2.46l-.28,1h-2.18Zm8.65,2.08h-5.23V70h.13c.77,0,1-.34,1-1.31V65.66c0-.85-.11-1-.67-1.26l-.51-.21v-.47l3.08-1.16h.4v2.1h0c.7-1.35,1-1.9,1.64-1.9a1.12,1.12,0,0,1,.38.06l1.48.54a6.37,6.37,0,0,1-.9,2,6.75,6.75,0,0,0-1.53-.47c-.37,0-.69.26-1.1.84v3c0,.9.28,1.26,1.26,1.26h.49Zm10-2.18a5.2,5.2,0,0,1-4,2.39c-2,0-3.44-1.58-3.44-3.86a4,4,0,0,1,4-4.23,3.22,3.22,0,0,1,2.37.9c1.11,1.11.59,2.17,1.24,2.51v.54H136.8c.15,1.56,1.21,2.75,2.32,2.75.69,0,1.37-.4,2.29-1.36ZM139.42,66c0-1.45-.53-2.33-1.34-2.33s-1.46,1-1.33,2.33Zm11.51,2.86a4.4,4.4,0,0,1-3.84,2,3.72,3.72,0,0,1-4-3.73A4.57,4.57,0,0,1,148,62.76c1.62,0,2.84.68,2.84,1.6a.89.89,0,0,1-1,.94c-1.31,0-1.59-1.67-2.69-1.67-.94,0-1.58,1.14-1.58,2.83,0,2,1,3.41,2.35,3.41a3.17,3.17,0,0,0,2.41-1.34Zm4.08-.1c0,1.19.32,1.3,1,1.3h.19v.6h-4.76V70h.27c1,0,1-.38,1-1.37V60.45c0-.55-.09-.68-.6-.85l-.55-.19V59l3-.92H155v6.13a7,7,0,0,1,3.38-1.43c1.38,0,2.05,1.11,2.05,3.33v2.48c0,1.11.13,1.47.85,1.47h.18v.6H157V70h.15c.79,0,1-.3,1-1.37V65.83c0-1-.47-1.66-1.22-1.66a3.86,3.86,0,0,0-1.92.72Zm10.57-.18c0,.69.32,1,.86,1s.88-.28,1.43-.94l.26.53a3.32,3.32,0,0,1-2.72,1.71c-1.28,0-2.13-.72-2.13-2.33V64h-1v-.49A5.66,5.66,0,0,0,165,60.62h.55V63H168l-.28,1h-2.18Z" transform="translate(0 0)" style="fill:#1d1d1b"/><path d="M66.9,67.7A2.1,2.1,0,0,0,69,69.8h1a1.25,1.25,0,0,1,1.14.76h.75A1.26,1.26,0,0,1,73,69.8h1a2.1,2.1,0,0,0,2.1-2.1V60.59H66.9Zm8.35-6.24V67.7a1.27,1.27,0,0,1-.36.88l-7.12-7.12Z" transform="translate(0 0)" style="fill:#1d1d1b"/><path d="M74.32,38.41a26,26,0,0,0-2.81-.15,26.36,26.36,0,0,0-2.82.15l2.82,16Zm-3.79,1.81a1,1,0,1,1,2,0,1,1,0,0,1-2,0Z" transform="translate(0 0)" style="fill:#1d1d1b"/><path d="M80.66,39.86c-.6-.21-1.2-.4-1.81-.58a4.23,4.23,0,0,1,.42.25l-.44.63a2.93,2.93,0,0,0-.75-.35c-.47-.12-.68,0-.74.25s0,.31.45.51c.91.45,1.07.89.94,1.42-.22.93-1,1.1-1.89.89a3.8,3.8,0,0,1-1.11-.49l.42-.67a3.49,3.49,0,0,0,.83.37c.3.07.64.09.72-.26s-.34-.49-.75-.72a1.08,1.08,0,0,1-.62-1.3,1.19,1.19,0,0,1,1.2-.86c-.77-.18-1.55-.32-2.35-.43L74.09,54.74Z" transform="translate(0 0)" style="fill:#1d1d1b"/><path d="M91.38,47a24.7,24.7,0,0,0-2.14-2.08l-1.93,2.22c.41.37.82.75,1.21,1.15l-.6.6A25.08,25.08,0,0,0,86,47.21l2.4-3c-.41-.34-.84-.66-1.28-1L78.65,57.13Z" transform="translate(0 0)" style="fill:#1d1d1b"/><path d="M95.16,52.3A27.1,27.1,0,0,0,92,47.67L80.37,59.08Zm-2.29-1.85a1,1,0,0,1-.25,1.36,1,1,0,0,1-1.35-.25,1,1,0,0,1,.24-1.35A1,1,0,0,1,92.87,50.45Z" transform="translate(0 0)" style="fill:#1d1d1b"/><path d="M97.56,58.33c-.2-.74-.43-1.47-.68-2.18l-3.61,1.28c-.1-.28-.21-.58-.33-.86l3.56-1.42c-.29-.71-.6-1.4-1-2.08l-14,8.31Z" transform="translate(0 0)" style="fill:#1d1d1b"/><path d="M97.76,71.22c.14-.61.26-1.23.36-1.85a4.58,4.58,0,0,1-.2.46l-.68-.37a2.43,2.43,0,0,0,.26-.79c.06-.47-.09-.67-.33-.7s-.31.07-.45.51c-.34,1-.77,1.17-1.3,1.1-1-.11-1.22-.91-1.12-1.76a4,4,0,0,1,.36-1.17l.72.34a3.4,3.4,0,0,0-.27.87c0,.31,0,.64.34.68s.44-.4.63-.83a1.07,1.07,0,0,1,1.22-.77,1.18,1.18,0,0,1,1,1.09,23.79,23.79,0,0,0,.14-2.4L82.2,66.5Z" transform="translate(0 0)" style="fill:#1d1d1b"/><path d="M95.55,77.33c.19-.37.37-.75.55-1.14l-.78-.34c.14-.3.27-.61.39-.91L93,73.82c.11-.28.22-.58.32-.86l2.81,1c.11-.31.21-.62.31-.92l.81.25c.13-.4.25-.82.36-1.24l-16-3Z" transform="translate(0 0)" style="fill:#1d1d1b"/><path d="M92,82.73c.49-.57,1-1.17,1.41-1.79l-3.1-2.24.52-.76L94,80.06c.42-.63.82-1.28,1.19-2L80.37,71.32Z" transform="translate(0 0)" style="fill:#1d1d1b"/><path d="M87.16,87.11c.34-.24.68-.49,1-.75l-.53-.66c.26-.2.52-.41.77-.63L86.48,82.8l.69-.61,2,2.19c.24-.22.48-.44.7-.67l.6.61c.31-.31.61-.62.9-.94L78.65,73.26Z" transform="translate(0 0)" style="fill:#1d1d1b"/><path d="M81.46,90.23c.71-.28,1.4-.59,2.08-.93l-1.71-3.43c.27-.14.55-.28.81-.43l1.85,3.36c.67-.37,1.32-.76,2-1.19L76.51,74.74Z" transform="translate(0 0)" style="fill:#1d1d1b"/><path d="M68.69,92a26.36,26.36,0,0,0,2.82.15A26,26,0,0,0,74.32,92L71.51,76Zm3.79-1.81a1,1,0,1,1-1-1A1,1,0,0,1,72.48,90.18Z" transform="translate(0 0)" style="fill:#1d1d1b"/><path d="M62.36,90.54c.72.26,1.45.49,2.2.69l1-3.7.89.21-.85,3.74c.74.16,1.48.3,2.23.4l1.1-16.22Z" transform="translate(0 0)" style="fill:#1d1d1b"/><path d="M56.56,87.61a27.7,27.7,0,0,0,2.58,1.52l1.36-2.64c-.5-.26-1-.53-1.46-.82l.45-.73a23.93,23.93,0,0,0,2.23,1.2L60.09,89.6c.48.22,1,.43,1.46.63l5-15.49Z" transform="translate(0 0)" style="fill:#1d1d1b"/><path d="M51.63,83.38a26.22,26.22,0,0,0,2.14,2.08l1.95-2.22c-.42-.37-.82-.75-1.22-1.15l.61-.6A23.25,23.25,0,0,0,57,83.19l-2.41,3c.42.34.84.66,1.27,1l8.51-13.85Z" transform="translate(0 0)" style="fill:#1d1d1b"/><path d="M45.45,72.06c.17.62.36,1.23.56,1.83,0-.16,0-.32,0-.49h.77a3.1,3.1,0,0,0,.14.82c.17.45.4.55.63.46s.23-.2.16-.65c-.15-1,.13-1.39.63-1.59.9-.34,1.5.24,1.81,1a3.7,3.7,0,0,1,.23,1.19l-.8,0a3.15,3.15,0,0,0-.16-.89c-.11-.3-.28-.58-.62-.45s-.21.56-.17,1a1.07,1.07,0,0,1-.72,1.25,1.2,1.2,0,0,1-1.39-.5c.3.74.62,1.46,1,2.16l14-8.31Z" transform="translate(0 0)" style="fill:#1d1d1b"/><path d="M44.58,65.63c0,.43,0,.85.05,1.28l.84-.06c0,.33.05.66.08,1l3-.3.12.92-3,.41q.06.48.15,1L45,70c.07.42.16.83.25,1.25L60.81,66.5Z" transform="translate(0 0)" style="fill:#1d1d1b"/><path d="M51.07,47.67a26,26,0,0,0-3.21,4.63l14.78,6.78Zm-.68,4.14a1,1,0,0,1-.24-1.36,1,1,0,0,1,1.35-.24,1,1,0,0,1,.25,1.35A1,1,0,0,1,50.39,51.81Z" transform="translate(0 0)" style="fill:#1d1d1b"/><path d="M67.83,38.52c-.63.09-1.26.19-1.88.32a4.35,4.35,0,0,1,.51,0l-.11.76a3.14,3.14,0,0,0-.83,0c-.46.12-.6.33-.54.57s.18.25.64.24c1,0,1.36.3,1.5.82.23.93-.43,1.46-1.26,1.67a3.85,3.85,0,0,1-1.22.08l.06-.79a3.54,3.54,0,0,0,.91-.06c.3-.07.61-.21.52-.56s-.53-.27-1-.29A1.07,1.07,0,0,1,64,40.47a1.19,1.19,0,0,1,.68-1.33c-.78.21-1.55.45-2.3.72l6.57,14.88Z" transform="translate(0 0)" style="fill:#1d1d1b"/><path d="M86.45,42.79c-.57-.38-1.16-.74-1.76-1.08A1.94,1.94,0,0,1,85,44a2.08,2.08,0,0,1-3.69-1.94A1.93,1.93,0,0,1,83.37,41c-.62-.31-1.26-.59-1.91-.85L76.51,55.66Z" transform="translate(0 0)" style="fill:#1d1d1b"/><path d="M82.2,42.57A1.06,1.06,0,1,0,83.7,42C83.19,41.69,82.6,41.82,82.2,42.57Z" transform="translate(0 0)" style="fill:#1d1d1b"/><path d="M94.51,63c0-.36-.07-.72-.13-1.08L98,60.08c-.06-.3-.12-.6-.19-.9L82.2,63.9l16.23.87c0-.28,0-.56,0-.83Z" transform="translate(0 0)" style="fill:#1d1d1b"/><polygon points="95.43 62.35 98.44 62.96 98.22 61.07 95.43 62.34 95.43 62.35" style="fill:#1d1d1b"/><path d="M61.55,40.17c-.65.26-1.29.54-1.91.85a1.91,1.91,0,0,1,2.08,1.07A2.08,2.08,0,0,1,58,44a1.94,1.94,0,0,1,.28-2.32c-.6.34-1.19.7-1.76,1.08L66.5,55.66Z" transform="translate(0 0)" style="fill:#1d1d1b"/><path d="M60.45,44.16a1.07,1.07,0,0,0,.36-1.59c-.4-.75-1-.88-1.51-.6A1.06,1.06,0,0,0,59,43.55,1.07,1.07,0,0,0,60.45,44.16Z" transform="translate(0 0)" style="fill:#1d1d1b"/><path d="M55.85,43.29l-.72.53,2.28,3.07c-.27.21-.54.42-.8.64l-2.81-.92,1.77,1.85c-.2.19-.4.39-.59.59l-2.74-2.67c-.2.21-.41.42-.61.64L64.36,57.13Z" transform="translate(0 0)" style="fill:#1d1d1b"/><polygon points="54.28 44.37 53.08 45.43 55.92 46.38 54.28 44.37" style="fill:#1d1d1b"/><path d="M47.46,53.07c-.33.65-.63,1.31-.91,2l4.13.11c-.15.32-.3.65-.44,1l-.9,0c-.17.42-.33.84-.48,1.27l.71.57c-.11.32-.21.65-.3,1l-3.14-2.77c-.25.72-.48,1.44-.67,2.18l16,3.05Z" transform="translate(0 0)" style="fill:#1d1d1b"/><path d="M47,55.9h0l1.25,1c.1-.29.21-.56.32-.85Z" transform="translate(0 0)" style="fill:#1d1d1b"/><path d="M45.25,59.18c-.18.82-.33,1.66-.44,2.5.14-.64.5-1.13,1.12-1.08a1,1,0,0,1,.94,1h0a1.68,1.68,0,0,1,.53-.38,12.43,12.43,0,0,1,1.43-.58,9.75,9.75,0,0,0-.19,1s-.62.17-.9.27-.67.33-.72.6c0,.05,0,.11,0,.15l1.5.14c0,.31-.06.61-.08.92l-3.82-.22c0,.4,0,.8,0,1.2l16.23-.87Z" transform="translate(0 0)" style="fill:#1d1d1b"/><path d="M46,61.6c-.31,0-.51.13-.55.53,0,.15,0,.29,0,.45l1,.1c0-.13,0-.29,0-.43S46.37,61.64,46,61.6Z" transform="translate(0 0)" style="fill:#1d1d1b"/><path d="M47.86,78.1c.13.25.28.5.42.75l3.88-1,.61.9L50.49,82l.58.69L62.64,71.32Z" transform="translate(0 0)" style="fill:#1d1d1b"/><polygon points="51.65 78.86 48.71 79.73 49.78 81.28 51.66 78.87 51.65 78.86" style="fill:#1d1d1b"/><path d="M74.09,75.66l1.09,16.22.82-.12-.13-.84c.52-.08,1-.19,1.61-.32L77.32,90c-.52.12-1,.21-1.44.29l-.13-.76c.45-.07.89-.16,1.39-.28L77,88.54c-.53.12-1,.22-1.49.3L75.34,88a22.83,22.83,0,0,0,2.32-.51l.29,1c.42-.12.83-.25,1.24-.39l.14-.56Z" transform="translate(0 0)" style="fill:#1d1d1b"/><path d="M78.51,90.58h0L79,89c-.27.09-.57.18-.84.25Z" transform="translate(0 0)" style="fill:#1d1d1b"/><polygon points="79.22 91.12 80.75 90.74 79.92 88.88 79.22 91.12" style="fill:#1d1d1b"/></g></svg>